<?xml version="1.0" encoding="utf-8"?>
<!-- Generator: Adobe Illustrator 26.5.0, SVG Export Plug-In . SVG Version: 6.00 Build 0)  -->
<svg version="1.1" id="mdmp_logo" xmlns="http://www.w3.org/2000/svg" xmlns:xlink="http://www.w3.org/1999/xlink" x="0px" y="0px"
	 viewBox="0 0 118.7 25.1" style="enable-background:new 0 0 118.7 25.1;" xml:space="preserve">
<style type="text/css">
	.st0{fill:#3BB0C6;}
	.st1{fill:#2D78B7;}
</style>
<path id="パス_6718" class="st0" d="M39.9,2.5h-6.1c-1.9,0-2.9,1-2.9,2.9v16.6c0,1.9,1,2.9,2.9,2.9h6.1c3.8,0,6.8-1,8.9-2.9
	c2.1-1.9,3.2-4.7,3.2-8.4s-1.1-6.4-3.2-8.3C46.8,3.6,43.8,2.5,39.9,2.5 M46.3,13.7c0,4.4-2.1,6.6-6.6,6.6h-3.1V7.2h3.1
	C44.1,7.2,46.3,9.3,46.3,13.7"/>
<path id="パス_6719" class="st0" d="M75.6,2.6C75,2.6,74.5,2.7,74,3c-0.5,0.3-0.8,0.8-1.1,1.3l-6.1,11.1L60.7,4.3
	c-0.3-0.5-0.6-1-1.1-1.3c-0.5-0.3-1.1-0.5-1.6-0.4c-0.7,0-1.4,0.2-1.9,0.7c-0.5,0.5-0.7,1.2-0.7,1.9v17.4c0,0.7,0.2,1.3,0.6,1.8
	c0.5,0.5,1.2,0.7,1.8,0.7c1.6,0,2.5-0.9,2.5-2.5v-9.4l4.2,7.5c0.2,0.4,0.5,0.7,0.9,1c0.8,0.5,1.8,0.5,2.6,0c0.4-0.3,0.7-0.6,0.9-1
	l4.2-7.6v9.5c0,1.6,0.9,2.5,2.5,2.5s2.5-0.9,2.5-2.5V5.1c0-0.7-0.2-1.4-0.7-1.9C77,2.8,76.3,2.5,75.6,2.6"/>
<path id="パス_6720" class="st0" d="M97.9,4.5c-1.3-1.3-3.4-1.9-5.8-1.9h-7.5c-1.8,0-2.9,1-2.9,2.8v17c0,0.7,0.2,1.5,0.7,2
	c0.5,0.5,1.3,0.8,2,0.7c0.7,0,1.5-0.2,2-0.8s0.7-1.3,0.7-2v-5h4.7c2.6,0,4.5-0.6,5.8-1.9c1.4-1.4,2.1-3.4,2-5.3
	C100,7.9,99.3,5.9,97.9,4.5 M87.2,7h4c2.4,0,3.4,0.9,3.4,2.8c0,1.9-1.1,2.9-3.4,2.9h-4V7z"/>
<path id="パス_6721" class="st0" d="M111.1,17.1c2.9-5,2.4-11.3-1.4-15.7l-0.9-1L106.7,3l0.6,0.7c2.7,3.3,3.1,7.9,1,11.6l-0.5,0.8
	l2.7,2.1L111.1,17.1z"/>
<path id="パス_6722" class="st0" d="M105.8,14.2c1.5-2.9,1.2-6.3-0.7-9L105,5.1l-2.1,2.7c0.7,1.4,0.8,3,0.2,4.5l2.6,2.1
	L105.8,14.2z"/>
<path class="st1" d="M26.4,15.4c-0.1-4.3-3.6-7.7-7.9-7.7c-2.1,0-3.9,0.8-5.4,2.1c-1.4-1.3-3.2-2-5.2-2C6.8,7.8,5.6,8,4.6,8.5
	C4.2,8,3.6,7.7,2.9,7.7H2.2C1,7.7,0,8.6,0,9.8V23c0,1.2,1,2.2,2.2,2.2H3l0,0l0,0c1.2,0,2.2-1,2.2-2.2v-7.4l0,0
	c0-1.5,1.2-2.7,2.7-2.7s2.8,1.2,2.8,2.7l0,0V23c0,1.2,1,2.2,2.2,2.2h0.8l0,0l0,0c1.2,0,2.2-1,2.2-2.2v-7.5c0.1-1.4,1.3-2.5,2.7-2.6
	c1.5,0,2.8,1.2,2.8,2.7l0,0V23c0,1.2,1,2.2,2.2,2.2h0.8l0,0c1.2,0,2.2-1,2.2-2.2L26.4,15.4L26.4,15.4z"/>
<g>
	<path class="st0" d="M117,21.8c0-0.3-0.1-0.6-0.3-0.7c-0.2-0.1-0.5-0.2-0.9-0.2h-1v2.7h0.6v-0.9h0.4l0.6,0.9h0.8l-0.7-1
		C116.8,22.5,117,22.3,117,21.8z M116.2,22.1L116.2,22.1c0,0-0.1,0.1-0.4,0.1h-0.4v-0.7h0.4c0.3,0,0.4,0,0.4,0.1
		c0.1,0,0.1,0.1,0.1,0.3C116.3,22,116.3,22.1,116.2,22.1z"/>
	<path class="st0" d="M115.7,19.4c-1.6,0-2.9,1.3-2.9,2.9s1.3,2.9,2.9,2.9s2.9-1.3,2.9-2.9S117.3,19.4,115.7,19.4z M115.7,24.5
		c-1.2,0-2.2-1-2.2-2.2s1-2.2,2.2-2.2s2.2,1,2.2,2.2S116.9,24.5,115.7,24.5z"/>
</g>
</svg>
